<?xml version="1.0" encoding="utf-8"?>
<!-- Generator: Adobe Illustrator 24.3.0, SVG Export Plug-In . SVG Version: 6.00 Build 0)  -->
<svg version="1.1" id="Layer_1" xmlns="http://www.w3.org/2000/svg" xmlns:xlink="http://www.w3.org/1999/xlink" x="0px" y="0px"
	 viewBox="0 0 500 500" style="enable-background:new 0 0 500 500;" xml:space="preserve">
<style type="text/css">
	.st0{fill:#383838;}
</style>
<g>
	<g>
		<g>
			<polygon class="st0" points="87.52,372.52 110.9,372.52 87.52,396.6 			"/>
			<polygon class="st0" points="87.52,406.67 87.52,430.86 103.9,414.09 120.28,430.86 143.93,430.86 115.73,401.35 143.93,372.52 
				120.47,372.48 			"/>
		</g>
	</g>
	<path class="st0" d="M183.53,419.06v11.76h-1.4v-14.39h1.1l9.52,11.98v-11.96h1.4v14.37h-1.21L183.53,419.06z"/>
	<path class="st0" d="M220.19,417.68h-5.13v13.13h-1.42v-13.13h-5.13v-1.26h11.67V417.68z"/>
	<path class="st0" d="M259.15,430.81v-14.39h6.06c0.62,0,1.2,0.13,1.72,0.4c0.53,0.26,0.98,0.61,1.36,1.03
		c0.38,0.43,0.67,0.91,0.88,1.45c0.21,0.54,0.31,1.09,0.31,1.64c0,0.53-0.08,1.03-0.23,1.51c-0.16,0.48-0.38,0.91-0.66,1.3
		c-0.28,0.39-0.62,0.71-1.01,0.97c-0.39,0.26-0.83,0.44-1.32,0.54l3.55,5.55h-1.6l-3.4-5.31h-4.26v5.31H259.15z M260.55,424.25h4.72
		c0.42,0,0.8-0.09,1.15-0.27c0.34-0.18,0.64-0.43,0.88-0.74c0.24-0.31,0.43-0.66,0.57-1.05s0.2-0.8,0.2-1.24s-0.08-0.85-0.23-1.25
		c-0.16-0.4-0.37-0.75-0.63-1.04s-0.57-0.53-0.93-0.71c-0.36-0.18-0.74-0.26-1.12-0.26h-4.6V424.25z"/>
	<path class="st0" d="M284.69,430.81v-14.39h5.96c0.62,0,1.19,0.13,1.71,0.4c0.52,0.26,0.97,0.61,1.35,1.03
		c0.38,0.43,0.67,0.91,0.88,1.45c0.21,0.54,0.32,1.09,0.32,1.64c0,0.59-0.1,1.16-0.3,1.71c-0.19,0.55-0.48,1.03-0.84,1.45
		c-0.36,0.42-0.8,0.76-1.31,1.02c-0.5,0.25-1.07,0.38-1.69,0.38h-4.68v5.31H284.69z M286.09,424.25h4.6c0.42,0,0.8-0.09,1.14-0.27
		c0.34-0.18,0.64-0.43,0.88-0.73c0.24-0.3,0.43-0.65,0.57-1.05c0.14-0.4,0.2-0.81,0.2-1.25c0-0.45-0.08-0.87-0.23-1.27
		c-0.16-0.4-0.37-0.75-0.63-1.05c-0.26-0.3-0.57-0.53-0.93-0.7c-0.36-0.17-0.74-0.25-1.12-0.25h-4.48V424.25z"/>
	<path class="st0" d="M309.44,430.81v-14.39h6.06c0.62,0,1.2,0.13,1.72,0.4c0.53,0.26,0.98,0.61,1.36,1.03
		c0.38,0.43,0.67,0.91,0.88,1.45c0.21,0.54,0.31,1.09,0.31,1.64c0,0.53-0.08,1.03-0.23,1.51c-0.16,0.48-0.38,0.91-0.66,1.3
		c-0.28,0.39-0.62,0.71-1.01,0.97s-0.83,0.44-1.32,0.54l3.55,5.55h-1.6l-3.4-5.31h-4.26v5.31H309.44z M310.84,424.25h4.72
		c0.42,0,0.8-0.09,1.15-0.27c0.34-0.18,0.64-0.43,0.88-0.74c0.24-0.31,0.43-0.66,0.57-1.05c0.14-0.39,0.2-0.8,0.2-1.24
		s-0.08-0.85-0.23-1.25c-0.16-0.4-0.37-0.75-0.63-1.04c-0.26-0.3-0.57-0.53-0.93-0.71c-0.36-0.18-0.74-0.26-1.12-0.26h-4.6V424.25z"
		/>
	<path class="st0" d="M334.97,430.81v-14.37h1.4v14.37H334.97z"/>
	<path class="st0" d="M360.63,419.12c-0.41-0.46-0.95-0.83-1.63-1.12c-0.68-0.28-1.45-0.43-2.3-0.43c-1.28,0-2.22,0.24-2.8,0.72
		c-0.58,0.48-0.87,1.13-0.87,1.96c0,0.43,0.08,0.79,0.23,1.07c0.16,0.28,0.4,0.51,0.73,0.72c0.33,0.2,0.75,0.38,1.26,0.52
		c0.5,0.15,1.11,0.3,1.79,0.45c0.77,0.16,1.46,0.34,2.07,0.53c0.61,0.2,1.13,0.45,1.56,0.75c0.43,0.3,0.77,0.68,0.99,1.12
		c0.23,0.44,0.35,0.98,0.35,1.63c0,0.66-0.13,1.24-0.39,1.72c-0.26,0.49-0.61,0.89-1.08,1.22c-0.46,0.32-1.01,0.56-1.64,0.72
		c-0.64,0.16-1.33,0.23-2.07,0.23c-2.26,0-4.18-0.7-5.78-2.09l0.69-1.15c0.53,0.55,1.24,1.02,2.13,1.41
		c0.89,0.39,1.88,0.58,2.98,0.58c1.15,0,2.05-0.2,2.7-0.62c0.65-0.41,0.97-1.04,0.97-1.88c0-0.45-0.09-0.82-0.27-1.12
		c-0.18-0.3-0.46-0.57-0.82-0.79c-0.37-0.22-0.82-0.42-1.37-0.58c-0.55-0.16-1.18-0.33-1.9-0.49c-0.76-0.17-1.42-0.36-1.99-0.55
		c-0.57-0.19-1.04-0.43-1.43-0.71c-0.39-0.28-0.68-0.62-0.87-1.02c-0.2-0.4-0.29-0.89-0.29-1.47c0-0.66,0.13-1.25,0.37-1.77
		c0.25-0.52,0.6-0.95,1.06-1.3c0.45-0.35,0.99-0.61,1.62-0.79c0.63-0.18,1.32-0.27,2.08-0.27c0.95,0,1.79,0.15,2.54,0.44
		c0.75,0.29,1.43,0.7,2.04,1.23L360.63,419.12z"/>
	<path class="st0" d="M409.54,419.12c-0.41-0.46-0.95-0.83-1.63-1.12c-0.68-0.28-1.45-0.43-2.3-0.43c-1.28,0-2.22,0.24-2.8,0.72
		c-0.58,0.48-0.87,1.13-0.87,1.96c0,0.43,0.08,0.79,0.23,1.07s0.4,0.51,0.73,0.72c0.33,0.2,0.75,0.38,1.26,0.52
		c0.5,0.15,1.11,0.3,1.79,0.45c0.77,0.16,1.46,0.34,2.07,0.53c0.61,0.2,1.13,0.45,1.56,0.75s0.77,0.68,0.99,1.12
		c0.23,0.44,0.35,0.98,0.35,1.63c0,0.66-0.13,1.24-0.39,1.72c-0.26,0.49-0.61,0.89-1.08,1.22c-0.46,0.32-1.01,0.56-1.64,0.72
		c-0.64,0.16-1.33,0.23-2.07,0.23c-2.26,0-4.18-0.7-5.78-2.09l0.69-1.15c0.53,0.55,1.24,1.02,2.13,1.41
		c0.89,0.39,1.88,0.58,2.98,0.58c1.15,0,2.05-0.2,2.7-0.62c0.65-0.41,0.97-1.04,0.97-1.88c0-0.45-0.09-0.82-0.27-1.12
		c-0.18-0.3-0.46-0.57-0.82-0.79c-0.37-0.22-0.82-0.42-1.37-0.58c-0.55-0.16-1.18-0.33-1.9-0.49c-0.76-0.17-1.42-0.36-1.99-0.55
		c-0.57-0.19-1.04-0.43-1.43-0.71c-0.39-0.28-0.68-0.62-0.87-1.02c-0.2-0.4-0.29-0.89-0.29-1.47c0-0.66,0.13-1.25,0.37-1.77
		c0.25-0.52,0.6-0.95,1.06-1.3c0.45-0.35,0.99-0.61,1.62-0.79c0.63-0.18,1.32-0.27,2.08-0.27c0.95,0,1.79,0.15,2.54,0.44
		c0.75,0.29,1.43,0.7,2.04,1.23L409.54,419.12z"/>
	<g>
		<rect x="158.24" y="429.55" class="st0" width="8.3" height="1.27"/>
		<rect x="158.24" y="416.32" class="st0" width="8.11" height="1.26"/>
		<rect x="158.24" y="423.05" class="st0" width="8.11" height="1.26"/>
	</g>
	<g>
		<rect x="235.94" y="429.6" class="st0" width="8.3" height="1.27"/>
		<rect x="235.94" y="416.37" class="st0" width="8.11" height="1.26"/>
		<rect x="235.94" y="423.1" class="st0" width="8.11" height="1.26"/>
	</g>
	<g>
		<rect x="379.17" y="429.54" class="st0" width="8.3" height="1.27"/>
		<rect x="379.17" y="416.32" class="st0" width="8.11" height="1.26"/>
		<rect x="379.17" y="423.04" class="st0" width="8.11" height="1.26"/>
	</g>
	<rect x="326.26" y="402.86" class="st0" width="19.18" height="2.93"/>
	<polygon class="st0" points="235.85,372.28 233.16,372.28 219.15,405.78 222.64,405.78 226.93,395.31 227.92,392.77 234.53,376.15 
		240.88,392.72 241.98,395.31 246.32,405.78 249.86,405.78 	"/>
	<path class="st0" d="M275.19,375.21h-11.94v30.57h-3.3v-30.57h-11.94v-2.93h27.18V375.21z"/>
	<path class="st0" d="M276.04,390.78v-2.97h13.73v2.97H276.04z"/>
	<path class="st0" d="M317.8,375.21h-11.94v30.57h-3.3v-30.57h-11.94v-2.93h27.18V375.21z"/>
	<rect x="326.26" y="372.28" class="st0" width="18.76" height="2.92"/>
	<rect x="326.26" y="387.83" class="st0" width="18.76" height="2.92"/>
	<polygon class="st0" points="214.24,372.28 214.24,405.78 210.93,405.78 210.93,390.75 191.07,390.75 191.07,405.78 187.81,405.78 
		187.81,372.28 191.07,372.28 191.07,387.83 210.93,387.83 210.93,372.28 	"/>
	<path class="st0" d="M349.69,388.8c0-2.01,0.35-4.02,1.06-6.02c0.71-2,1.74-3.78,3.09-5.35c1.35-1.57,3.02-2.85,5-3.84
		c1.98-0.99,4.23-1.49,6.75-1.49c2.99,0,5.54,0.68,7.64,2.03c2.11,1.35,3.68,3.11,4.72,5.28l-2.64,1.61
		c-0.53-1.1-1.18-2.03-1.94-2.78c-0.75-0.76-1.57-1.37-2.45-1.84c-0.88-0.47-1.79-0.81-2.74-1.02c-0.94-0.2-1.87-0.31-2.78-0.31
		c-2.01,0-3.79,0.41-5.33,1.23c-1.54,0.82-2.84,1.89-3.89,3.21c-1.05,1.32-1.85,2.81-2.38,4.46c-0.54,1.65-0.8,3.32-0.8,5.02
		c0,1.86,0.32,3.63,0.97,5.33c0.65,1.7,1.53,3.2,2.64,4.51c1.12,1.31,2.44,2.35,3.96,3.12c1.53,0.77,3.19,1.16,4.98,1.16
		c0.94,0,1.91-0.12,2.9-0.36c0.99-0.23,1.95-0.61,2.88-1.13c0.93-0.52,1.78-1.16,2.57-1.94c0.79-0.77,1.45-1.7,1.98-2.81l2.74,1.42
		c-0.54,1.26-1.29,2.37-2.26,3.32c-0.98,0.96-2.06,1.77-3.26,2.43c-1.19,0.66-2.46,1.16-3.8,1.51c-1.34,0.35-2.65,0.52-3.94,0.52
		c-2.29,0-4.4-0.5-6.32-1.51c-1.92-1-3.57-2.32-4.95-3.94c-1.39-1.62-2.46-3.46-3.23-5.52C350.07,393.04,349.69,390.94,349.69,388.8
		z"/>
	<polygon class="st0" points="409.74,372.28 409.74,405.78 406.44,405.78 406.44,390.75 386.57,390.75 386.57,405.78 383.32,405.78 
		383.32,372.28 386.57,372.28 386.57,387.83 406.44,387.83 406.44,372.28 	"/>
	<path class="st0" d="M158.24,405.78v-33.45h3.25v20.8l20.49-20.85h3.63l-15.73,16.76l14.44,16.73h-3.63l-12.83-14.8l-6.37,6.56
		v8.24H158.24z"/>
</g>
<g>
	<g>
		<g>
			<polygon class="st0" points="182.97,78.21 237.32,78.21 182.97,134.19 			"/>
			<polygon class="st0" points="182.97,157.62 182.97,213.87 221.05,174.87 259.12,213.87 314.13,213.87 248.55,145.26 
				314.13,78.21 259.57,78.13 			"/>
		</g>
	</g>
	<g>
		<path class="st0" d="M195.89,243.73v6.21h-0.74v-7.59h0.58l5.03,6.32v-6.31h0.74v7.58h-0.64L195.89,243.73z"/>
		<path class="st0" d="M215.24,243h-2.71v6.93h-0.75V243h-2.71v-0.66h6.16V243z"/>
		<path class="st0" d="M235.8,249.94v-7.59h3.2c0.33,0,0.63,0.07,0.91,0.21c0.28,0.14,0.52,0.32,0.72,0.54
			c0.2,0.22,0.36,0.48,0.46,0.76c0.11,0.29,0.17,0.57,0.17,0.87c0,0.28-0.04,0.54-0.12,0.8c-0.08,0.25-0.2,0.48-0.35,0.68
			c-0.15,0.2-0.33,0.37-0.53,0.51s-0.44,0.23-0.69,0.28l1.87,2.93h-0.85l-1.8-2.8h-2.25v2.8H235.8z M236.54,246.47h2.49
			c0.22,0,0.42-0.05,0.61-0.14c0.18-0.1,0.34-0.23,0.46-0.39c0.13-0.16,0.23-0.35,0.3-0.56c0.07-0.21,0.11-0.42,0.11-0.65
			s-0.04-0.45-0.12-0.66s-0.19-0.39-0.33-0.55s-0.3-0.28-0.49-0.37c-0.19-0.09-0.39-0.14-0.59-0.14h-2.43V246.47z"/>
		<path class="st0" d="M249.28,249.94v-7.59h3.14c0.33,0,0.63,0.07,0.9,0.21c0.28,0.14,0.51,0.32,0.71,0.54
			c0.2,0.22,0.36,0.48,0.46,0.76c0.11,0.29,0.17,0.57,0.17,0.87c0,0.31-0.05,0.61-0.16,0.9c-0.1,0.29-0.25,0.54-0.44,0.76
			c-0.19,0.22-0.42,0.4-0.69,0.54c-0.27,0.13-0.56,0.2-0.89,0.2h-2.47v2.8H249.28z M250.02,246.47h2.43c0.22,0,0.42-0.05,0.6-0.14
			c0.18-0.1,0.34-0.22,0.46-0.38c0.13-0.16,0.23-0.34,0.3-0.56s0.11-0.43,0.11-0.66c0-0.24-0.04-0.46-0.12-0.67
			s-0.19-0.39-0.33-0.55c-0.14-0.16-0.3-0.28-0.49-0.37c-0.19-0.09-0.39-0.13-0.59-0.13h-2.36V246.47z"/>
		<path class="st0" d="M262.34,249.94v-7.59h3.2c0.33,0,0.63,0.07,0.91,0.21c0.28,0.14,0.52,0.32,0.72,0.54
			c0.2,0.22,0.36,0.48,0.46,0.76c0.11,0.29,0.17,0.57,0.17,0.87c0,0.28-0.04,0.54-0.12,0.8c-0.08,0.25-0.2,0.48-0.35,0.68
			s-0.33,0.37-0.53,0.51s-0.44,0.23-0.69,0.28l1.87,2.93h-0.85l-1.8-2.8h-2.25v2.8H262.34z M263.08,246.47h2.49
			c0.22,0,0.42-0.05,0.61-0.14c0.18-0.1,0.34-0.23,0.46-0.39c0.13-0.16,0.23-0.35,0.3-0.56c0.07-0.21,0.11-0.42,0.11-0.65
			s-0.04-0.45-0.12-0.66c-0.08-0.21-0.19-0.39-0.33-0.55s-0.3-0.28-0.49-0.37c-0.19-0.09-0.39-0.14-0.59-0.14h-2.43V246.47z"/>
		<path class="st0" d="M275.82,249.94v-7.58h0.74v7.58H275.82z"/>
		<path class="st0" d="M289.36,243.76c-0.21-0.24-0.5-0.44-0.86-0.59c-0.36-0.15-0.76-0.22-1.21-0.22c-0.68,0-1.17,0.13-1.48,0.38
			c-0.31,0.25-0.46,0.6-0.46,1.03c0,0.23,0.04,0.42,0.12,0.56c0.08,0.15,0.21,0.27,0.38,0.38c0.17,0.11,0.4,0.2,0.66,0.28
			c0.27,0.08,0.58,0.16,0.95,0.24c0.41,0.09,0.77,0.18,1.09,0.28c0.32,0.1,0.6,0.24,0.82,0.4c0.23,0.16,0.4,0.36,0.52,0.59
			c0.12,0.23,0.18,0.52,0.18,0.86c0,0.35-0.07,0.65-0.2,0.91c-0.14,0.26-0.32,0.47-0.57,0.64c-0.24,0.17-0.53,0.3-0.87,0.38
			c-0.34,0.08-0.7,0.12-1.09,0.12c-1.19,0-2.21-0.37-3.05-1.1l0.36-0.61c0.28,0.29,0.65,0.54,1.12,0.74c0.47,0.2,0.99,0.3,1.57,0.3
			c0.61,0,1.08-0.11,1.42-0.33c0.34-0.22,0.51-0.55,0.51-0.99c0-0.24-0.05-0.43-0.14-0.59c-0.1-0.16-0.24-0.3-0.43-0.42
			c-0.19-0.12-0.43-0.22-0.72-0.3c-0.29-0.09-0.62-0.17-1-0.26c-0.4-0.09-0.75-0.19-1.05-0.29c-0.3-0.1-0.55-0.22-0.75-0.37
			c-0.2-0.15-0.36-0.33-0.46-0.54c-0.1-0.21-0.15-0.47-0.15-0.78c0-0.35,0.07-0.66,0.2-0.93c0.13-0.28,0.32-0.5,0.56-0.68
			c0.24-0.18,0.52-0.32,0.85-0.42c0.33-0.1,0.7-0.14,1.1-0.14c0.5,0,0.95,0.08,1.34,0.23c0.4,0.15,0.75,0.37,1.08,0.65
			L289.36,243.76z"/>
		<path class="st0" d="M315.17,243.76c-0.21-0.24-0.5-0.44-0.86-0.59c-0.36-0.15-0.76-0.22-1.21-0.22c-0.68,0-1.17,0.13-1.48,0.38
			c-0.31,0.25-0.46,0.6-0.46,1.03c0,0.23,0.04,0.42,0.12,0.56c0.08,0.15,0.21,0.27,0.38,0.38c0.17,0.11,0.4,0.2,0.66,0.28
			c0.27,0.08,0.58,0.16,0.95,0.24c0.41,0.09,0.77,0.18,1.09,0.28c0.32,0.1,0.6,0.24,0.82,0.4c0.23,0.16,0.4,0.36,0.52,0.59
			c0.12,0.23,0.18,0.52,0.18,0.86c0,0.35-0.07,0.65-0.2,0.91c-0.14,0.26-0.32,0.47-0.57,0.64c-0.24,0.17-0.53,0.3-0.87,0.38
			c-0.34,0.08-0.7,0.12-1.09,0.12c-1.19,0-2.21-0.37-3.05-1.1l0.36-0.61c0.28,0.29,0.65,0.54,1.12,0.74c0.47,0.2,0.99,0.3,1.57,0.3
			c0.61,0,1.08-0.11,1.42-0.33c0.34-0.22,0.51-0.55,0.51-0.99c0-0.24-0.05-0.43-0.14-0.59c-0.1-0.16-0.24-0.3-0.43-0.42
			c-0.19-0.12-0.43-0.22-0.72-0.3c-0.29-0.09-0.62-0.17-1-0.26c-0.4-0.09-0.75-0.19-1.05-0.29c-0.3-0.1-0.55-0.22-0.75-0.37
			c-0.2-0.15-0.36-0.33-0.46-0.54c-0.1-0.21-0.15-0.47-0.15-0.78c0-0.35,0.07-0.66,0.2-0.93c0.13-0.28,0.32-0.5,0.56-0.68
			c0.24-0.18,0.52-0.32,0.85-0.42c0.33-0.1,0.7-0.14,1.1-0.14c0.5,0,0.95,0.08,1.34,0.23c0.4,0.15,0.75,0.37,1.08,0.65
			L315.17,243.76z"/>
		<g>
			<rect x="182.55" y="249.27" class="st0" width="4.38" height="0.67"/>
			<rect x="182.55" y="242.29" class="st0" width="4.28" height="0.67"/>
			<rect x="182.55" y="245.84" class="st0" width="4.28" height="0.67"/>
		</g>
		<g>
			<rect x="223.55" y="249.29" class="st0" width="4.38" height="0.67"/>
			<rect x="223.55" y="242.31" class="st0" width="4.28" height="0.67"/>
			<rect x="223.55" y="245.86" class="st0" width="4.28" height="0.67"/>
		</g>
		<g>
			<rect x="299.14" y="249.26" class="st0" width="4.38" height="0.67"/>
			<rect x="299.14" y="242.29" class="st0" width="4.28" height="0.67"/>
			<rect x="299.14" y="245.83" class="st0" width="4.28" height="0.67"/>
		</g>
		<rect x="271.22" y="235.18" class="st0" width="10.12" height="1.55"/>
		<polygon class="st0" points="223.51,219.05 222.09,219.05 214.69,236.73 216.53,236.73 218.8,231.2 219.32,229.86 222.81,221.09 
			226.16,229.83 226.74,231.2 229.03,236.73 230.9,236.73 		"/>
		<path class="st0" d="M244.27,220.59h-6.3v16.14h-1.74v-16.14h-6.3v-1.54h14.34V220.59z"/>
		<path class="st0" d="M244.72,228.81v-1.57h7.25v1.57H244.72z"/>
		<path class="st0" d="M266.75,220.59h-6.3v16.14h-1.74v-16.14h-6.3v-1.54h14.34V220.59z"/>
		<rect x="271.22" y="219.05" class="st0" width="9.9" height="1.54"/>
		<rect x="271.22" y="227.25" class="st0" width="9.9" height="1.54"/>
		<polygon class="st0" points="212.1,219.05 212.1,236.73 210.36,236.73 210.36,228.79 199.87,228.79 199.87,236.73 198.15,236.73 
			198.15,219.05 199.87,219.05 199.87,227.25 210.36,227.25 210.36,219.05 		"/>
		<path class="st0" d="M283.59,227.76c0-1.06,0.19-2.12,0.56-3.17c0.37-1.05,0.92-2,1.63-2.83c0.71-0.83,1.59-1.51,2.64-2.03
			s2.23-0.79,3.56-0.79c1.58,0,2.92,0.36,4.03,1.07c1.11,0.71,1.94,1.64,2.49,2.79l-1.39,0.85c-0.28-0.58-0.62-1.07-1.02-1.47
			c-0.4-0.4-0.83-0.72-1.29-0.97c-0.47-0.25-0.95-0.43-1.45-0.54c-0.5-0.11-0.99-0.16-1.47-0.16c-1.06,0-2,0.22-2.81,0.65
			c-0.81,0.43-1.5,1-2.05,1.69c-0.56,0.7-0.98,1.48-1.26,2.35c-0.28,0.87-0.42,1.75-0.42,2.65c0,0.98,0.17,1.92,0.51,2.81
			c0.34,0.9,0.81,1.69,1.39,2.38c0.59,0.69,1.29,1.24,2.09,1.64c0.81,0.41,1.68,0.61,2.63,0.61c0.5,0,1.01-0.06,1.53-0.19
			c0.52-0.12,1.03-0.32,1.52-0.6c0.49-0.27,0.94-0.61,1.36-1.02c0.42-0.41,0.76-0.9,1.05-1.48l1.45,0.75
			c-0.28,0.66-0.68,1.25-1.19,1.75c-0.52,0.51-1.09,0.93-1.72,1.28c-0.63,0.35-1.3,0.61-2,0.8c-0.71,0.18-1.4,0.27-2.08,0.27
			c-1.21,0-2.32-0.27-3.34-0.8c-1.01-0.53-1.88-1.22-2.61-2.08c-0.73-0.85-1.3-1.83-1.71-2.91
			C283.79,230,283.59,228.89,283.59,227.76z"/>
		<polygon class="st0" points="315.27,219.05 315.27,236.73 313.53,236.73 313.53,228.79 303.05,228.79 303.05,236.73 
			301.33,236.73 301.33,219.05 303.05,219.05 303.05,227.25 313.53,227.25 313.53,219.05 		"/>
		<path class="st0" d="M182.55,236.73v-17.65h1.72v10.98l10.82-11H197l-8.3,8.85l7.62,8.83h-1.92l-6.77-7.81l-3.36,3.46v4.35H182.55
			z"/>
	</g>
</g>
</svg>
